<?xml version="1.0" encoding="UTF-8"?><svg id="a" xmlns="http://www.w3.org/2000/svg" viewBox="0 0 595.28 622.97"><path id="b" d="M62.09,297.33l37.37-5.11,7.02-167.15c-7.23-11.93-15.96-18.11-29.5-.94l-14.9,173.2Z" style="fill:#ffb703;"/><path id="c" d="M78.39,124.74c2.53-3.45,6.2-6.96,8.92-8.23l-8.63,160.56-14,7.11,13.71-159.44Z" style="fill:#a27601;"/><path id="d" d="M62.52,287.03c-.24.12-.47.19-.47.41v95.83c0,.23.22.34.47.41l47.46,14.65c.25.08.28-14.84.28-15.07v-95.83c0-1.39.59-24.95-.18-24.56l-47.56,24.15Z" style="fill:#a27601;"/><ellipse id="e" cx="62.92" cy="335.36" rx="32.33" ry="46.42" style="fill:#a27601;"/><path id="f" d="M62.52,287.03c-.24.12-.47.19-.47.41v95.83c0,.23.22.34.47.41l47.46,14.65c.25.08.28-14.84.28-15.07v-95.83c0-1.39.59-24.95-.18-24.56l-47.56,24.15Z" style="fill:#086da2;"/><path id="g" d="M536.6,297.47l-37.37-5.11-7.02-167.15c7.23-11.93,15.96-18.11,29.5-.94l14.9,173.2Z" style="fill:#ffb703;"/><path id="h" d="M493.71,125.56c2.4-3.74,5.06-7.58,8.51-9.29l8.06,156.43-11-3.98-5.56-143.15Z" style="fill:#a27601;"/><ellipse id="i" cx="535.77" cy="335.51" rx="32.33" ry="46.42" style="fill:#ffb703;"/><path id="j" d="M536.17,287.18c.24.12.47.19.47.41v95.83c0,.23-.22.34-.47.41l-47.46,14.65c-.25.08-.28-14.84-.28-15.07v-95.83c0-1.39-.59-24.95.18-24.56l47.56,24.15Z" style="fill:#0cacff;"/><ellipse id="k" cx="300.1" cy="331.58" rx="211.85" ry="181.42" style="fill:#a27601;"/><path id="l" d="M509.22,331.93c0,96.25-90.72,173.8-201.4,173.8s-182.76-65.7-182.76-161.95c0-96.25,72.08-186.59,182.76-186.59,110.68,0,201.4,78.49,201.4,174.74h0Z" style="fill:#ffb703; stroke:rgba(0,0,0,0); stroke-miterlimit:11.34; stroke-width:8.72px;"/><path id="m" d="M273.02,263.61c53.14-.18,108.25-1.67,160.27,9.49,11.39,2.74,20.24,9.54,24.71,20.94,11.45,27.82,10.47,69.23,5.56,89.94-3.87,20.57-16.68,29.99-37.97,25.94-24.78-5.12-51.46-6.78-77.05-7.86-37.8-1.75-75.58-1.14-113.33,1.13-16.19.85-31.33,2-46.63,4.48-12.43,1.59-28.49,6.5-39.47-.45-25.73-21.27-19.61-90.51-6.92-116.32,5.35-11.51,17.51-15.76,29.34-17.81,32.97-6.77,68.39-8.53,101.05-9.46h.45Z" style="stroke:rgba(0,0,0,0); stroke-linecap:round; stroke-linejoin:round; stroke-width:1.01px;"/><g id="n"><ellipse id="o" cx="224.43" cy="337.14" rx="35.46" ry="53.02" style="fill:#0cacff; stroke:rgba(255,229,163,0); stroke-miterlimit:11.34; stroke-width:1.25px;"/><ellipse id="p" cx="229.81" cy="310.39" rx="12.17" ry="15.21" style="fill:#fff; stroke:rgba(255,255,255,0); stroke-miterlimit:11.34; stroke-width:1.48px;"/></g><g id="q"><ellipse id="r" cx="373.32" cy="337.14" rx="35.46" ry="53.02" style="fill:#0cacff; stroke:rgba(255,229,163,0); stroke-miterlimit:11.34; stroke-width:1.25px;"/><ellipse id="s" cx="378.71" cy="309.28" rx="12.17" ry="15.21" style="fill:#fff; stroke:rgba(255,255,255,0); stroke-miterlimit:11.34; stroke-width:1.48px;"/></g><path id="t" d="M469.74,276.14c-7.6,5.36-30.48-23.04-48.98-40.78-19.29-18.49-40.94-37.63-33.91-44.43,12.36-11.95,31.61,2.44,51,20.27,19.39,17.83,45.92,55.02,31.88,64.94Z" style="fill:#ffe39c; stroke:#ffe39c; stroke-miterlimit:11.34; stroke-width:3.01px;"/><ellipse id="u" cx="481.09" cy="302.98" rx="7.16" ry="14.94" transform="translate(-50.81 102.16) rotate(-11.52)" style="fill:#ffe39c; stroke:#ffe39c; stroke-miterlimit:11.34; stroke-width:2.74px;"/><path id="v" d="M561.64,332.87c.04,7.01-2.88,20.1-6.52,20.11-3.64.02-1.55-12.29-1.59-19.3-.04-7.01-1.84-20.7,1.8-20.71,3.64-.02,6.27,12.89,6.31,19.91h0Z" style="fill:#ffe39c; stroke:#ffe39c; stroke-miterlimit:11.34; stroke-width:2.55px;"/><path id="w" d="M94.9,120.33l.59.07c.31.04.54.32.52.63l-6.83,105.81c-.02.31-.29.53-.6.5l-.59-.07c-.31-.04-.54-.32-.52-.63l6.83-105.81c.02-.31.29-.53.6-.5Z" style="fill:#ffe39c; stroke:#ffe39c; stroke-width:.68px;"/><path id="x" d="M514.48,125.71l1.15-.18c.31-.05.57.16.59.47l6.8,105.25c.02.31-.21.6-.52.65l-1.15.18c-.31.05-.57-.16-.59-.47l-6.8-105.25c-.02-.31.21-.6.52-.65Z" style="fill:#ffe39c; stroke:#ffe39c; stroke-width:.78px;"/></svg>