<?xml version="1.0" encoding="UTF-8"?><svg id="a" xmlns="http://www.w3.org/2000/svg" xmlns:xlink="http://www.w3.org/1999/xlink" viewBox="0 0 595.28 841.89"><defs><linearGradient id="aa" x1="1718.62" y1="1934.34" x2="2081.29" y2="1934.34" gradientTransform="translate(-518.98 -156.02) rotate(46.81) scale(.32 -.15) skewX(41.35)" gradientUnits="userSpaceOnUse"><stop offset="0" stop-color="#ffe49f"/><stop offset="1" stop-color="#ffe49f" stop-opacity=".56"/></linearGradient><linearGradient id="ae" x1="-3261.15" y1="6817.54" x2="-2842.26" y2="6817.54" gradientTransform="translate(-464.04 -845.61) rotate(18.87) scale(.32 .15) skewX(41.35)" xlink:href="#aa"/></defs><path id="b" d="M174.29,438.02l234.44.62c2.02,120.2-34.84,219.4-107.51,282.58-5.64,4.9-14.02,4.93-19.85.26-75.76-60.76-108.1-167.33-107.08-283.46Z" style="fill:#ffb703;"/><path id="c" d="M408.72,437.13c-.55,7.61-54.38,26.53-119.19,27.65-64.07,1.11-113.89-19.4-115.28-28.39-1.62-10.53,52.49-16.49,117.7-16.49s117.54,6.62,116.77,17.24Z" style="fill:#a27601;"/><path id="d" d="M174.6,444.25c13.84,11.36,23.63,12.89,34.61,17.2-3.95,79.97,9.76,156.21,78.08,259.52-.97,1.43-21.8,2.52-68.09-76.48-20.63-34.72-33.03-72.47-38.55-109.98-5.3-35.94-6.17-74.66-6.05-90.27Z" style="fill:#a27601;"/><g style="opacity:.61;"><path d="M346.47,553.46h-103.98c-4.09,0-7.42-3.33-7.42-7.42v-43.78c0-4.09,3.33-7.42,7.42-7.42h103.98c4.09,0,7.42,3.33,7.42,7.42v43.78c0,4.09-3.33,7.42-7.42,7.42ZM242.49,497.25c-2.77,0-5.02,2.25-5.02,5.02v43.78c0,2.77,2.25,5.02,5.02,5.02h103.98c2.77,0,5.02-2.25,5.02-5.02v-43.78c0-2.77-2.25-5.02-5.02-5.02h-103.98Z" style="fill:#fff;"/></g><path id="e" d="M245.73,515.52h2.94v21.7h-2.94v-21.7ZM262.93,515.52h3.15l5.39,8.07,5.42-8.07h3.15l-6.98,10.42,7.44,11.28h-3.15l-6.11-9.23-6.15,9.23h-3.17l7.75-11.58-6.76-10.12ZM301.08,518.42l-3.98,10.8h7.98l-4-10.8ZM299.43,515.52h3.33l8.27,21.7h-3.05l-1.98-5.57h-9.78l-1.98,5.57h-3.1l8.29-21.7ZM323.66,515.52h2.94v8.9h10.67v-8.9h2.94v21.7h-2.94v-10.33h-10.67v10.33h-2.94v-21.7Z" style="stroke:#000; stroke-miterlimit:11.34; stroke-width:2.39px;"/><path id="f" d="M420.62,433.69c56.28,23.56,96.27,78.15,127.82,119.91,4.08,5.39.68,15.04-5.36,12.02-43.13-21.58-79.9-39.52-123-33.13-1.32.2-2.34-1.15-1.75-2.34,13.73-27.39,7.74-59.14-2.73-91.87-.97-3.04,2.07-5.81,5.01-4.57Z" style="fill:#ffb703;"/><path id="g" d="M417.2,439.81c5.47,16.3,7.3,22.3,9.38,40.66,2.07,18.95-.97,32.75-4.51,43.55-1.05,3.21,1.52,6.42,4.88,6.08,13.79-1.41,34.43.14,61.1,9.24,42.93,18.62,59.34,27.5,58.59,24.82-4.83-1.52-60.82-37.37-95.39-59.53-16.88-10.82-12.18-30.86-28.26-56.91l-5.79-7.92Z" style="fill:#a27601;"/><path id="h" d="M146.88,195.74l29.22,2.75,32.75-125.38c-3.36-10.32-8.88-16.55-22.18-5.94l-39.78,128.56Z" style="fill:#ffb703;"/><path id="i" d="M187.62,67.89c2.53-2.16,5.93-4.17,8.22-4.65l-32.8,120.1-11.87,2.91,36.45-118.35Z" style="fill:#a27601;"/><path id="j" d="M149.04,188.02c-.2.05-.39.06-.43.23l-16.98,72.59c-.04.17.11.29.29.4l33.35,19.51c.18.1,2.84-11.19,2.88-11.37l16.98-72.59c.25-1.05,4.87-18.8,4.22-18.64l-40.3,9.87Z" style="fill:#a27601;"/><ellipse id="k" cx="140.77" cy="224.7" rx="36.11" ry="25.15" transform="translate(-110.09 310.59) rotate(-76.83)" style="fill:#a27601;"/><path id="l" d="M149.04,188.02c-.2.05-.39.06-.43.23l-16.98,72.59c-.04.17.11.29.29.4l33.35,19.51c.18.1,2.84-11.19,2.88-11.37l16.98-72.59c.25-1.05,4.87-18.8,4.22-18.64l-40.3,9.87Z" style="fill:#086da2;"/><path id="m" d="M495.4,282.98l-25.72-10.1,22.55-127.76c7.26-7.84,14.58-11.06,21.18,4.21l-18.01,133.65Z" style="fill:#ffb703;"/><path id="n" d="M493.31,145.65c2.48-2.41,5.18-4.85,8.09-5.53l-19.42,121.55-7.63-6.59,18.96-109.43Z" style="fill:#a27601;"/><path id="o" d="M339.81,125.86c87.25,20.41,145.74,98.47,127.99,174.37-17.75,75.9-105.04,120.89-192.28,100.48-87.25-20.41-141.42-98.49-123.66-174.39,17.75-75.9,100.71-120.87,187.96-100.46Z" style="fill:#a27601;"/><path id="p" d="M468.78,300.74c-17.06,72.91-99.18,115.66-182.6,96.15-83.42-19.51-126.1-81.99-109.05-154.9,17.06-72.91,85.21-128.63,168.63-109.12,83.42,19.51,140.07,94.97,123.02,167.87h0Z" style="fill:#ffb703; stroke:rgba(0,0,0,0); stroke-miterlimit:11.34; stroke-width:6.77px;"/><path id="q" d="M495.51,274.78c.14.13.28.21.24.39l-16.98,72.59c-.03.12-.13.21-.25.23l-35.58,3.76s.04-.19.2-.56c4.13-9.41,7.57-19.12,10.05-29.11l10.93-44.01c1.74-7.01,3.07-14.13,3.97-21.29.59-4.66,1.01-8.26,1.24-8.04l26.19,26.03Z" style="fill:#0cacff;"/><path id="r" d="M496.77,275.66c-6.89-4.99-15.56,11.08-20.22,30.99-4.66,19.91-5.03,42.01,3.35,41.12,14.84-1.58,30.09-9.99,34.74-29.9,4.66-19.91-5.79-33.46-17.88-42.21Z" style="fill:#ffb703;"/><path id="s" d="M291.14,194.15c40.15,9.86,82.03,19.11,119.19,37.33,8.08,4.22,13.48,11.01,14.71,20.46,3.41,23.16-5.12,54.23-12.73,68.93-6.79,14.79-18.24,19.5-33.55,12.43-17.74-8.53-37.57-14.8-56.68-20.43-28.2-8.43-56.84-15.09-85.76-20.48-12.38-2.4-24.02-4.39-36.04-5.4-9.68-1.14-22.73-.46-29.71-7.77-15.42-20.9,2.23-72.01,16.67-89.11,6.21-7.68,16.19-8.6,25.5-7.92,26.16,1.1,53.23,6.44,78.06,11.88l.34.08Z" style="stroke:rgba(0,0,0,0); stroke-linecap:round; stroke-linejoin:round; stroke-width:.78px;"/><path id="t" d="M450.66,251.93c-6.7,2.72-19.01-22.85-29.88-39.57-11.33-17.43-24.34-35.76-17.81-39.66,11.48-6.86,23.52,7.45,35.04,24.39,11.53,16.94,25.04,49.82,12.64,54.84Z" style="fill:#ffe39c; stroke:#ffe39c; stroke-miterlimit:11.34; stroke-width:2.34px;"/><ellipse id="u" cx="454.5" cy="274.27" rx="11.63" ry="5.57" transform="translate(167.27 720.69) rotate(-88.35)" style="fill:#ffe39c; stroke:#ffe39c; stroke-miterlimit:11.34; stroke-width:2.13px;"/><path id="v" d="M510.22,314.72c-1.21,5.32-5.74,14.71-8.5,14.08-2.76-.63,1-9.58,2.21-14.9,1.21-5.32,2.27-16.01,5.04-15.37,2.76.63,2.46,10.88,1.25,16.2h0Z" style="fill:#ffe39c; stroke:#ffe39c; stroke-miterlimit:11.34; stroke-width:1.99px;"/><path id="w" d="M200.91,67.48l.43.16c.23.08.36.34.29.57l-21.73,78.94c-.07.23-.31.35-.54.27l-.43-.16c-.23-.08-.36-.34-.29-.57l21.73-78.94c.07-.23.31-.35.54-.27Z" style="fill:#ffe39c; stroke:#ffe39c; stroke-width:.53px;"/><path id="x" d="M509.01,149.44l.9.07c.24.02.4.23.36.46l-11.3,80.93c-.04.24-.27.42-.51.4l-.9-.07c-.24-.02-.4-.23-.36-.46l11.3-80.93c.04-.24.27-.42.51-.4Z" style="fill:#ffe39c; stroke:#ffe39c; stroke-width:.61px;"/><path id="y" d="M392.5,531c-7.24,38.59-17.18,69.81-19.79,69.12-2.61-.7,6.86-29.98,14.1-68.57,7.24-38.59,9.49-71.87,12.11-71.17,2.61.7.82,32.04-6.42,70.62h0Z" style="fill:#ffe39c; stroke:rgba(255,229,163,.01); stroke-miterlimit:11.34; stroke-width:.44px;"/><path id="z" d="M370.58,605.11c1.3.36.7,4.63-1.34,9.54-2.04,4.91-4.75,8.59-6.05,8.23-1.3-.36-.7-4.63,1.34-9.54,2.04-4.91,4.75-8.59,6.05-8.23Z" style="fill:#ffdc84; stroke:rgba(255,220,132,0); stroke-width:.08px;"/><path id="ab" d="M529.51,535.39c-7.86-8.22-23.32-23.5-43.6-42.69-20.33-19.24-55.45-47.7-43.83-43.69,11.63,4.01,41.36,31.94,60.53,52.37,19.17,20.43,35.44,42.94,26.9,34.01h0Z" style="fill:url(#aa); stroke:rgba(255,229,163,.01); stroke-miterlimit:11.34; stroke-width:.36px;"/><path id="ac" d="M164.61,530.93c-56.28-23.56-98.73-75.68-127.17-119.63-4.15-6.41-1.34-15.32,4.7-12.29,43.13,21.58,79.9,39.52,123,33.13,1.32-.2,2.34,1.15,1.75,2.34-13.73,27.39-7.74,59.14,2.73,91.87.97,3.04-2.07,5.81-5.01,4.57Z" style="fill:#ffb703;"/><path id="ad" d="M165.99,434.08c-6.61,16.54-6.71,22.91-7.61,41.36,1.67,21.37,5.89,37.93,10.44,48.79.89,2.12-.84,4.88-3.06,4.27-11.8-3.2-11.3-4.35-34.73-17.51-53.96-35.05-94.04-102.65-93.46-105.37,4.72-1.83,71.81,115.28,104.88,90.95,16.15-11.88,3.91-27.2,18.28-54.22l5.27-8.28Z" style="fill:#a27601;"/><path id="af" d="M155.64,438.02c-12.41-.81-36.1-2.15-59.97-11.93-23.93-9.8-61.24-28.54-53.45-20.28,7.8,8.26,42.62,22.66,67.11,31.03,35.57,7.9,59.72,1.17,46.3,1.17h0Z" style="fill:url(#ae); stroke:rgba(255,229,163,.01); stroke-miterlimit:11.34; stroke-width:.33px;"/><path id="ag" d="M291.14,194.15c40.15,9.86,82.03,19.11,119.19,37.33,8.08,4.22,13.48,11.01,14.71,20.46,3.41,23.16-5.12,54.23-12.73,68.93-6.79,14.79-18.24,19.5-33.55,12.43-17.74-8.53-37.57-14.8-56.68-20.43-28.2-8.43-56.84-15.09-85.76-20.48-12.38-2.4-24.02-4.39-36.04-5.4-9.68-1.14-22.73-.46-29.71-7.77-15.42-20.9,2.23-72.01,16.67-89.11,6.21-7.68,16.19-8.6,25.5-7.92,26.16,1.1,53.23,6.44,78.06,11.88l.34.08Z" style="stroke:rgba(0,0,0,0); stroke-linecap:round; stroke-linejoin:round; stroke-width:.78px;"/><path d="M313.56,263.55c5.47-6.74,14.24-9.69,22.46-11.07,20.71-2.85,45.94,4.65,57.53,23.07,1.68,2.95,3.03,6.04,3.16,9.55.02.31-.1.86-.41.88-.21.01-.53-.38-.64-.54-1.94-2.98-4.85-5.46-7.73-7.57-15.49-11.41-44.14-17.62-63.19-15.6-3.59.39-7.33.99-10.66,2.33-.5.24-1.03-.44-.67-.86,0,0,.14-.19.14-.19h0Z" style="fill:#3ca6e5;"/><path d="M198.02,234.75c5.47-6.74,14.24-9.69,22.46-11.07,20.71-2.85,45.94,4.65,57.53,23.07,1.68,2.95,3.03,6.04,3.16,9.55.02.31-.1.86-.41.88-.21.01-.53-.38-.64-.54-1.94-2.98-4.85-5.46-7.73-7.57-15.49-11.41-44.14-17.62-63.19-15.6-3.59.39-7.33.99-10.66,2.33-.5.24-1.03-.44-.67-.86,0,0,.14-.19.14-.19h0Z" style="fill:#3ca6e5;"/></svg>